<?xml version="1.0" encoding="UTF-8"?>
<svg width="24px" height="24px" viewBox="0 0 24 24" version="1.1" xmlns="http://www.w3.org/2000/svg" xmlns:xlink="http://www.w3.org/1999/xlink">
    <!-- Generator: Sketch 55.2 (78181) - https://sketchapp.com -->
    <title>mob-cookie_policy</title>
    <desc>Created with Sketch.</desc>
    <g id="Page-1" stroke="none" stroke-width="1" fill="none" fill-rule="evenodd">
        <g id="mob-cookie_policy" transform="translate(1.000000, 1.000000)">
            <path d="M0.27376303,19.7464009 C3.02129674,19.7464009 6.40667473,19.7464009 9.35971064,16.9022979 C12.1809415,14.1851379 15.1383315,12.2370918 17.2047233,11 C17.2047233,12.4519858 16.0180568,20.5985154 8.44654878,21.9599283 C6.81207737,22.5141994 2.59915175,21.9524341 2.00126127,21.398163 C0.681477174,20.1746644 0.0735473782,19.7464009 0.27376303,19.7464009 Z" id="Path-2" fill="#D9992D" fill-rule="nonzero" transform="translate(8.720550, 16.593986) scale(-1, 1) translate(-8.720550, -16.593986) "></path>
            <path d="M6.59737561,21.1947357 C7.87501417,21.7139677 9.27229178,22 10.7363758,22 C16.8115081,22 21.7363758,17.0751322 21.7363758,11 C21.7363758,4.92486775 16.8115081,0 10.7363758,0 C5.48721906,0 1.09680949,3.67673378 -1.42108547e-14,8.59534844" id="Path" stroke="#292929" stroke-linecap="round" transform="translate(10.868188, 11.000000) rotate(180.000000) translate(-10.868188, -11.000000) "></path>
            <path d="M15.1390002,0.805264346 C14.3291249,2.03951343 13.9881999,3.03951343 14.1162252,3.80526435 C14.2442506,4.57100354 14.8738982,5.29791089 16.0051682,5.9859864 C14.9331925,7.57252786 14.6508301,8.85888117 15.1580812,9.84504633 C15.6653323,10.8312115 16.8073761,11.216196 18.5842127,11 C18.217544,11.7915607 18.3881802,12.4573703 19.0961213,12.9974286 C19.8040625,13.5374868 20.6841473,13.6732278 21.7363758,13.4046516" id="Path-4" stroke="#292929" stroke-linecap="round" stroke-linejoin="round"></path>
            <circle id="Oval" fill="#D9992D" cx="8.23637582" cy="6" r="1"></circle>
            <circle id="Oval-Copy-4" fill="#D9992D" cx="7.73637582" cy="9.5" r="1"></circle>
            <circle id="Oval-Copy-5" fill="#D9992D" cx="15.7363758" cy="14.5" r="1.5"></circle>
            <circle id="Oval-Copy-6" fill="#D9992D" cx="10.2363758" cy="13" r="1"></circle>
        </g>
    </g>
</svg>