<?xml version="1.0" encoding="UTF-8"?>
<svg width="26px" height="24px" viewBox="0 0 26 24" version="1.1" xmlns="http://www.w3.org/2000/svg" xmlns:xlink="http://www.w3.org/1999/xlink">
    <!-- Generator: Sketch 55.2 (78181) - https://sketchapp.com -->
    <title>mob-refund_and_return_policy</title>
    <desc>Created with Sketch.</desc>
    <g id="Page-1" stroke="none" stroke-width="1" fill="none" fill-rule="evenodd">
        <g id="mob-refund_and_return_policy" transform="translate(1.000000, 1.000000)">
            <path d="M10.5,12.4451411 L10.5,11.5 L11.6240106,11.5 C12.3839088,11.5 12.9854859,11.3636377 13.4287599,11.0909091 C13.8720339,10.8181805 14.1147755,10.3996893 14.1569921,9.8354232 L10.5,9.8354232 L10.5,9.21473354 L11.5923483,9.14420063 L14.1253298,9.14420063 C14.0197884,8.71159658 13.7506618,8.40595701 13.317942,8.22727273 C12.8852221,8.04858845 12.320584,7.95924765 11.6240106,7.95924765 L10.5,7.95924765 L10.5,7 L16.5,7 L16.5,7.69122257 L14.2519789,7.69122257 C14.8852274,7.99216451 15.2757249,8.47648569 15.4234828,9.14420063 L16.5,9.14420063 L16.5,9.8354232 L15.4551451,9.8354232 C15.4129285,10.5407559 15.1728254,11.0979603 14.7348285,11.5070533 C14.2968316,11.9161462 13.7348319,12.1912219 13.0488127,12.3322884 L16.025066,16 L14.5369393,16 L11.7189974,12.4451411 L10.5,12.4451411 Z" id="₹" fill="#000000" fill-rule="nonzero"></path>
            <path d="M16.3584494,16.9022979 C19.1796802,14.1851379 22.1370702,12.2370918 24.203462,11 C24.203462,12.4519858 23.0167955,20.5985154 15.4452875,21.9599283 C13.8108161,22.5141994 9.74955533,21.6778006 9,21.398163 C9,21.398163 13.4054135,19.7464009 16.3584494,16.9022979 Z" id="Path-2" fill="#D9992D" fill-rule="nonzero"></path>
            <polyline id="Line-4" stroke="#292929" stroke-linecap="round" stroke-linejoin="round" points="8.8817842e-16 11.5 3.00224034 14.7378283 4.81203032 11"></polyline>
            <path d="M9.3609998,21.1947357 C10.6386384,21.7139677 12.035916,22 13.5,22 C19.5751322,22 24.5,17.0751322 24.5,11 C24.5,4.92486775 19.5751322,0 13.5,0 C7.42486775,0 2.5,4.92486775 2.5,11 C2.5,12.0263819 2.64057274,13.0199314 2.90351571,13.9624458" id="Path" stroke="#292929" stroke-linecap="round"></path>
        </g>
    </g>
</svg>