<?xml version="1.0" encoding="UTF-8"?>
<svg width="25px" height="23px" viewBox="0 0 25 23" version="1.1" xmlns="http://www.w3.org/2000/svg" xmlns:xlink="http://www.w3.org/1999/xlink">
    <!-- Generator: Sketch 55.2 (78181) - https://sketchapp.com -->
    <title>mob-home</title>
    <desc>Created with Sketch.</desc>
    <g id="Page-1" stroke="none" stroke-width="1" fill="none" fill-rule="evenodd">
        <g id="mob-home">
            <path d="M3.89669344,18.5607605 C9.16282659,20.1323 13.0082135,19.880769 15.432854,17.8061673 C17.8574946,15.7315655 19.9092866,14.2082644 21.58823,13.2362637 C21.652818,15.6014891 21.652818,17.3763214 21.58823,18.5607605 C21.4245809,21.5618132 21.4245809,21.5618132 17.8035365,21.6061144 C12.9257968,21.6657906 7.09022636,22.1481698 5.52719461,21.5618132 C3.83275599,20.9261605 3.2892556,19.9258096 3.89669344,18.5607605 Z" id="Path-2" fill="#D9992D" fill-rule="nonzero"></path>
            <path d="M13.8733881,1.11520266 L23.9848328,8.70553575 C24.274046,8.92263875 24.332503,9.33308918 24.1154,9.62230243 C23.991728,9.78705172 23.7977356,9.88399613 23.591733,9.88399613 L22.42875,9.88399613 C21.9869222,9.88399613 21.62875,10.2421683 21.62875,10.6839961 L21.62875,19.4742857 C21.62875,20.7997691 20.5542334,21.8742857 19.22875,21.8742857 L6.12125,21.8742857 C4.7957666,21.8742857 3.72125,20.7997691 3.72125,19.4742857 L3.72125,10.6839961 C3.72125,10.2421683 3.3630778,9.88399613 2.92125,9.88399613 L1.860625,9.88399613 C1.50090958,9.88399613 1.20930262,9.59238917 1.20930262,9.23267376 C1.20930262,9.03451752 1.29951078,8.84713833 1.45440462,8.72355114 L10.9357228,1.15856676 C11.7906689,0.476419659 12.99868,0.458587706 13.8733881,1.11520266 Z" id="Rectangle" stroke="#292929" stroke-width="0.8" fill-rule="nonzero"></path>
            <rect id="Rectangle-Copy" stroke="#292929" stroke-width="0.8" x="10.15" y="12.1857143" width="4.8875" height="9.41428571" rx="0.8"></rect>
        </g>
    </g>
</svg>