<?xml version="1.0" encoding="UTF-8"?>
<svg width="26px" height="26px" viewBox="0 0 26 26" version="1.1" xmlns="http://www.w3.org/2000/svg" xmlns:xlink="http://www.w3.org/1999/xlink">
    <!-- Generator: Sketch 55.2 (78181) - https://sketchapp.com -->
    <title>mob-about_us</title>
    <desc>Created with Sketch.</desc>
    <g id="Page-1" stroke="none" stroke-width="1" fill="none" fill-rule="evenodd">
        <g id="mob-about_us" fill="#292929" fill-rule="nonzero">
            <g id="Symbols">
                <g id="icon/pickle">
                    <g id="watermark-mini">
                        <path d="M12.4164424,17.4718654 L8.33368324,13.3891063 L7.3206321,14.4046246 L7.78312846,14.8745224 L11.6138584,18.7058216 L11.6140481,18.7056319 L13.2133329,20.3060552 L13.2129533,20.3064348 C13.284311,20.3832961 13.3532014,20.4586392 13.4192452,20.5330333 C14.5841212,21.8417633 14.9312307,22.7510042 14.5748219,23.5050042 C14.2504862,24.1922012 13.7466175,24.519953 13.0003986,24.5370333 C12.2427927,24.519953 11.7391138,24.1922012 11.4145883,23.5050042 C11.0549533,22.7434129 11.4138292,21.8231647 12.6060336,20.4937487 L11.5840628,19.4710187 C10.6833621,20.4618654 9.83807739,21.6627997 9.83826712,22.9168728 C9.83826712,23.3302159 9.93031098,23.7350187 10.112311,24.1200844 C10.62453,25.2039238 11.4969533,25.8347559 12.6451285,25.9562159 L12.6449387,25.9787997 L12.9026613,25.9787997 C12.9233474,25.9787997 12.9438438,25.9780406 12.9643402,25.9772816 L12.9907197,25.9765224 L13.02507,25.9772816 C13.0453767,25.9780406 13.0660628,25.9787997 13.0867489,25.9787997 L13.3439022,25.9729166 L13.3439022,25.9562159 C14.4922671,25.8349457 15.3648803,25.2039238 15.8769095,24.1200844 C16.6958146,22.3868144 15.5311285,20.6740406 14.2485883,19.3019238 L12.4164424,17.4718654 Z" id="Fill-443"></path>
                        <path d="M14.3679986,12.9894085 C14.3679986,12.2314231 13.7536774,11.617102 12.9956919,11.617102 C12.2375168,11.617102 11.6230058,12.2314231 11.6230058,12.9894085 C11.6230058,13.747394 12.2375168,14.3619049 12.9956919,14.3619049 C13.7536774,14.3619049 14.3679986,13.747394 14.3679986,12.9894085" id="Fill-445"></path>
                        <path d="M13.4754394,8.40629175 L17.5033519,12.4340144 L17.6623883,12.5936202 L18.6794248,11.573737 L14.7198336,7.61414575 C14.7198336,7.61414575 12.5345051,5.40756181 12.5060379,5.37491948 C11.3910745,4.10376619 11.0640817,3.21483189 11.4140379,2.47411656 C11.7376146,1.78881729 12.2397752,1.46087568 12.9941548,1.44227714 C13.7485343,1.46087568 14.2506949,1.78881729 14.5744613,2.47411656 C14.9344759,3.23627714 14.5750307,4.1567151 13.383016,5.48575159 L14.3886657,6.50658371 L14.3928409,6.50221875 L14.4011912,6.51037933 C14.4520526,6.45420415 14.5025343,6.39745962 14.5528262,6.34014575 L14.5545343,6.33843772 L14.5543445,6.33843772 C15.7047971,5.02856911 16.6294102,3.45300707 15.8765489,1.85922605 C15.3639504,0.774437722 14.4905781,0.143415826 13.3408847,0.0225253147 L13.3406949,0.000510716151 L13.0831621,0.000510716151 C13.0628555,0.000510716151 13.0431183,0.00126984024 13.0231912,0.00202896433 L12.9979504,0.00278808841 L12.9653081,0.00202896433 C12.9451912,0.00126984024 12.925454,-0.00100753202 12.8952788,0.000510716151 L12.6449576,0.00734283294 L12.6449576,0.0229048767 C11.4965927,0.14417495 10.6239795,0.775196844 10.1117606,1.85922605 C9.92957083,2.2446713 9.83752703,2.64928444 9.83752703,3.06243772 C9.83752703,4.29487568 10.6537752,5.4756932 11.5364467,6.45610196 C11.5478336,6.46862751 13.4754394,8.40629175 13.4754394,8.40629175" id="Fill-447"></path>
                        <path d="M12.5993723,8.31770195 L11.5903066,7.29345381 L11.5751241,7.30882606 L6.91713869,11.9620669 L5.49226277,13.3702421 C4.48186862,14.2760669 3.7030073,14.7030742 3.068,14.7030742 C2.8609489,14.7030742 2.66661314,14.6586654 2.47379562,14.5675706 C1.78640876,14.2426654 1.45846715,13.7382275 1.44176643,12.9910597 C1.45751825,12.2357311 1.78564964,11.7322421 2.47379562,11.4069574 C2.66661314,11.3160523 2.86113869,11.2716435 3.06818978,11.2716435 C3.57186862,11.2716435 4.16664233,11.540753 4.89597081,12.1047823 C5.08328467,12.2495852 5.28008759,12.4150742 5.48581022,12.5993516 L6.50664233,11.5758625 C6.38271533,11.4629428 6.25575183,11.3509721 6.12556205,11.2416582 C5.21518248,10.4770304 4.1590511,9.83063626 3.061927,9.83063626 C2.64877372,9.83063626 2.24416058,9.92305965 1.85871533,10.1048699 C0.766715328,10.6208844 0.134364964,11.5031764 0.0203065693,12.6652056 L0,12.667483 L0,12.9202713 C0,12.9369721 0.000569343066,12.9532932 0.00132846715,12.9694246 L0.00208759124,12.9825195 L0.00132846715,13.0049136 C0.000569343066,13.021045 0,13.0373662 0,13.0540669 L0.00493430657,13.3362713 L0.0229635036,13.3362713 C0.144233576,14.4848261 0.775065692,15.357629 1.85871533,15.8694684 C2.24416058,16.0514684 2.64877372,16.143702 3.061927,16.143702 C4.2829781,16.143702 5.45316788,15.3433954 6.42826277,14.4700231 C6.45710949,14.4442129 6.48557664,14.4184027 6.51404379,14.3927823 L8.38490514,12.5352056 L8.38642332,12.5336873 L12.3509489,8.56897206 L12.3511387,8.56878226 L12.5929197,8.32719104 L12.5914014,8.32567278 L12.5993723,8.31770195 Z" id="Fill-449"></path>
                        <path d="M25.9889357,12.9912494 L25.9896949,12.969045 C25.990454,12.9529136 25.9912131,12.9367823 25.9912131,12.9202713 L25.986089,12.6373078 L25.9682496,12.6373078 C25.8467898,11.4889428 25.2161474,10.6161399 24.1323081,10.1043005 C23.7470526,9.92230052 23.3422496,9.83006693 22.9290964,9.83006693 C21.6742643,9.83006693 20.4729504,10.6757311 19.4815343,11.5770012 L17.6562205,13.3935852 L17.6535635,13.391118 L13.3937387,17.6511326 L14.4115343,18.6696873 L18.4254029,14.655629 L19.0757825,14.0139793 L19.0786292,14.0166363 C19.0786292,14.0166363 21.1125124,12.0840961 21.3560014,11.9119647 C21.9684248,11.479264 22.4817825,11.2710742 22.9232131,11.2710742 C23.1302643,11.2710742 23.3246,11.3151034 23.5174175,11.4060085 C24.202527,11.7299647 24.5302788,12.2378187 24.5488774,12.991629 C24.5291402,13.7433516 24.2011986,14.243994 23.5174175,14.5670012 C23.3246,14.6579063 23.1302643,14.7023151 22.9230233,14.7023151 C22.4011255,14.7023151 21.7809212,14.4134684 21.0145854,13.8065487 C20.860673,13.6843297 20.5114759,13.4028844 20.4968628,13.3884611 L19.4870379,14.4009428 C20.4773153,15.3003151 21.6765416,16.1429428 22.9292862,16.1429428 C23.3422496,16.1429428 23.7470526,16.0507092 24.1323081,15.8687092 C25.2203226,15.3547823 25.8519138,14.4772348 25.9693883,13.3216582 L25.9889357,13.3205195 L25.9912131,13.0529282 C25.9912131,13.0362275 25.990454,13.0200961 25.9896949,13.0039647 L25.9889357,12.9912494 Z" id="Fill-451"></path>
                    </g>
                </g>
            </g>
        </g>
    </g>
</svg>