<?xml version="1.0" encoding="UTF-8"?>
<svg width="40px" height="50px" viewBox="0 0 40 50" version="1.1" xmlns="http://www.w3.org/2000/svg" xmlns:xlink="http://www.w3.org/1999/xlink">
    <!-- Generator: Sketch 55.2 (78181) - https://sketchapp.com -->
    <title>papads</title>
    <desc>Created with Sketch.</desc>
    <g id="Symbols" stroke="none" stroke-width="1" fill="none" fill-rule="evenodd" stroke-linecap="round">
        <g id="icon/papad" transform="translate(-11.000000, -7.000000)" stroke="#292929">
            <g id="papads" transform="translate(9.000000, 6.236767)">
                <path d="M32.1895846,27.0584329 C41.3022829,27.0584329 47.1948237,24.868681 47.1948237,20.7265454 C47.1948237,16.5844098 41.1406159,8 32.0279175,8 C22.9152191,8 14.9829503,12.0292596 14.9829503,16.1713952 C14.9829503,20.3135308 23.0768862,27.0584329 32.1895846,27.0584329 Z" id="Oval-Copy-4" fill="#D7C186" transform="translate(31.088887, 17.529216) scale(1, -1) rotate(95.000000) translate(-31.088887, -17.529216) "></path>
                <path d="M34.1251665,9.76686553 C34.7892963,9.82496936 35.0923093,10.1860862 35.0342055,10.850216" id="Path-Copy-3" transform="translate(34.583192, 10.308541) scale(1, -1) rotate(95.000000) translate(-34.583192, -10.308541) "></path>
                <path d="M33.1251665,19.7668655 C33.7892963,19.8249694 34.0923093,20.1860862 34.0342055,20.850216" id="Path-Copy-4" transform="translate(33.583192, 20.308541) scale(1, -1) rotate(95.000000) translate(-33.583192, -20.308541) "></path>
                <path d="M27.1251665,10.7668655 C27.7892963,10.8249694 28.0923093,11.1860862 28.0342055,11.850216" id="Path-Copy-5" transform="translate(27.583192, 11.308541) scale(1, -1) rotate(95.000000) translate(-27.583192, -11.308541) "></path>
                <path d="M40.1333333,28.2126293 C40.1333333,34.7286845 40.4222222,41.2455525 41,47.7632333 L15,47.7632333 C15.5777778,40.7158563 15.8666667,34.1441563 15.8666667,28.0481334 C15.8666667,21.9521105 15.5777778,15.8571438 15,9.7632333 L19,9.7632333 L22.3905045,12.7231431 L26.0108551,16.8837085 L30.0717579,18.4288758 L33.9698767,24.958933 L40.1333333,28.2126293 Z" id="Path" fill="#FFFDE9" stroke-linejoin="round"></path>
                <path d="M16.0500844,37.91185 C19.9507998,37.3360924 23.9037598,37.0482136 27.9089643,37.0482136 C31.9141689,37.0482136 35.9542035,37.3360924 40.0290681,37.91185" id="Path-22" stroke-linejoin="round"></path>
                <path d="M16.0500844,23.91185 C19.9507998,23.3360924 23.9037598,23.0482136 27.9089643,23.0482136 C29.5374901,23.0482136 31.1717741,23.0958073 32.8118164,23.1909947" id="Path-22-Copy" stroke-linejoin="round"></path>
                <g id="Group-8" transform="translate(14.500000, 43.263233) rotate(-70.000000) translate(-14.500000, -43.263233) translate(7.000000, 30.763233)">
                    <path d="M6.23778785,16.9250754 C12.567424,16.9407739 17.5338342,18.8292755 17.5267062,15.8712315 C17.5195629,12.9131875 12.2927635,8.3545549 5.96312736,8.33885645 C-0.366508839,8.323158 -5.41241361,8.57152837 -5.40528552,11.5295724 C-5.3981423,14.4876164 -0.0918483461,16.909377 6.23778785,16.9250754 Z" id="Oval-Copy-5" fill="#D7C186" transform="translate(6.060710, 12.935791) scale(1, -1) rotate(95.000000) translate(-6.060710, -12.935791) "></path>
                    <path d="M7.64465607,16.6838974 C13.9742923,16.6995958 18.9407024,18.5880975 18.9335745,15.6300534 C18.9264311,12.6720094 13.6996318,8.11337687 7.36999557,8.09767842 C1.04035938,8.08197998 -4.0055454,8.33035034 -3.9984173,11.2883944 C-3.99127408,14.2464384 1.31501987,16.6681989 7.64465607,16.6838974 Z" id="Oval-Copy-2" fill="#D7C186" transform="translate(7.467579, 12.694613) scale(1, -1) rotate(95.000000) translate(-7.467579, -12.694613) "></path>
                    <path d="M9.04200978,16.3951312 C15.371646,16.4108296 20.3380562,18.2993312 20.3309282,15.3412872 C20.3237848,12.3832432 15.0969855,7.82461063 8.76734929,7.80891219 C2.43771309,7.79321374 -2.60819168,8.04158411 -2.60106358,10.9996281 C-2.59392036,13.9576721 2.71237359,16.3794327 9.04200978,16.3951312 Z" id="Oval-Copy-3" fill="#D7C186" transform="translate(8.864932, 12.405847) scale(1, -1) rotate(95.000000) translate(-8.864932, -12.405847) "></path>
                    <path d="M10.6080758,17.623706 C11.0694773,17.6663441 11.2805707,17.9247522 11.2413562,18.3989305" id="Path" transform="translate(10.927020, 18.011318) scale(1, -1) rotate(95.000000) translate(-10.927020, -18.011318) "></path>
                    <path d="M10.7745999,10.5435853 C11.2360014,10.5862233 11.4470948,10.8446315 11.4078803,11.3188097" id="Path-Copy" transform="translate(11.093544, 10.931197) scale(1, -1) rotate(95.000000) translate(-11.093544, -10.931197) "></path>
                    <path d="M8.33296672,13.0776241 C8.79436816,13.1202622 9.00546161,13.3786704 8.96624707,13.8528486" id="Path-Copy-2" transform="translate(8.651911, 13.465236) scale(1, -1) rotate(95.000000) translate(-8.651911, -13.465236) "></path>
                    <path d="M7.09262259,6.2386814 C7.55402403,6.28131948 7.76511748,6.53972763 7.72590294,7.01390587" id="Path-Copy-3" transform="translate(7.411567, 6.626294) scale(1, -1) rotate(95.000000) translate(-7.411567, -6.626294) "></path>
                    <path d="M9.32695933,6.56080864 C9.78836077,6.60344671 9.99945422,6.86185487 9.96023968,7.3360331" id="Path-Copy-4" transform="translate(9.645903, 6.948421) scale(1, -1) rotate(95.000000) translate(-9.645903, -6.948421) "></path>
                    <path d="M7.54627056,16.7382735 C8.007672,16.7809116 8.21876545,17.0393197 8.17955091,17.513498" id="Path-Copy-5" transform="translate(7.865215, 17.125886) scale(1, -1) rotate(95.000000) translate(-7.865215, -17.125886) "></path>
                </g>
            </g>
        </g>
    </g>
</svg>