<?xml version="1.0" encoding="UTF-8"?>
<svg width="44px" height="43px" viewBox="0 0 44 43" version="1.1" xmlns="http://www.w3.org/2000/svg" xmlns:xlink="http://www.w3.org/1999/xlink">
    <!-- Generator: Sketch 55.2 (78181) - https://sketchapp.com -->
    <title>pickles</title>
    <desc>Created with Sketch.</desc>
    <g id="Symbols" stroke="none" stroke-width="1" fill="none" fill-rule="evenodd" stroke-linecap="round">
        <g id="icon/pickle" transform="translate(-6.000000, -12.000000)" stroke="#292929">
            <g id="pickles" transform="translate(6.000000, 13.000000)">
                <path d="M17,3.5 L42,3.5 C42.5522847,3.5 43,3.94771525 43,4.5 L43,7.5 C43,8.05228475 42.5522847,8.5 42,8.5 L17,8.5 C16.4477153,8.5 16,8.05228475 16,7.5 L16,4.5 C16,3.94771525 16.4477153,3.5 17,3.5 Z" id="Rectangle" fill="#D9992D"></path>
                <path d="M29,0 L30,0 C30.8284271,-1.52179594e-16 31.5,0.671572875 31.5,1.5 C31.5,2.32842712 30.8284271,3 30,3 L29,3 C28.1715729,3 27.5,2.32842712 27.5,1.5 C27.5,0.671572875 28.1715729,1.52179594e-16 29,0 Z" id="Rectangle-Copy" fill="#D9992D"></path>
                <path d="M17.5,11.5 C18.3957854,11.2014049 19,10.3631019 19,9.41886117 L19,8.5 L40,8.5 L40,9.41886117 C40,10.3631019 40.6042146,11.2014049 41.5,11.5 C42.3957854,11.7985951 43,12.6368981 43,13.5811388 L43,40 C43,40.5522847 42.5522847,41 42,41 L17,41 C16.4477153,41 16,40.5522847 16,40 L16,13.5811388 C16,12.6368981 16.6042146,11.7985951 17.5,11.5 Z" id="Rectangle-Copy" fill="#FFFDE9"></path>
                <g id="Group" stroke-linejoin="round" transform="translate(6.500000, 35.500000) scale(-1, 1) rotate(-1.000000) translate(-6.500000, -35.500000) translate(1.000000, 30.000000)">
                    <path d="M7.58490203,2.63008829 C7.79645698,1.93972216 8.00721745,1.38878944 8.21718345,0.977290135 C8.42714945,0.565790828 8.66258799,0.24002745 8.92349905,1.82076576e-14" id="Path-2" transform="translate(8.254201, 1.315044) scale(-1, -1) translate(-8.254201, -1.315044) "></path>
                    <path d="M10.7583518,3.12006864 C10.4026046,2.12914884 9.92814627,1.58671452 9.33497678,1.49276571 C8.74180728,1.39881689 8.17571322,1.49145504 7.63669458,1.77068016 C7.69903683,2.54506014 8.03085704,3.09888486 8.63215522,3.43215432 C9.2334534,3.76542378 9.94218559,3.66139522 10.7583518,3.12006864 Z" id="Path-3" fill="#2EAB50" transform="translate(9.197523, 2.539966) scale(-1, 1) rotate(-9.000000) translate(-9.197523, -2.539966) "></path>
                    <path d="M2.68393645,10.9226877 C5.46070603,11.2817934 8.71773423,8.64641975 8.71773423,6.05360529 C8.71773423,4.61988554 8.27286846,3.55694148 7.56516299,2.86875923 C6.99301655,2.31239638 6.25410668,1.9886978 5.40025153,2.00811999 C2.11159632,2.19515031 2.0669697,5.33191492 1.63197756,6.3460215 C1.09785735,7.59122746 0.121599214,8.10197896 0.0154952507,8.81614936 C-0.14550436,9.89981441 0.962154741,10.7000183 2.68393645,10.9226877 Z" id="Oval" fill="#D9992D"></path>
                </g>
                <g id="Group-Copy" stroke-linejoin="round" transform="translate(9.500000, 34.500000) scale(-1, 1) rotate(-31.000000) translate(-9.500000, -34.500000) translate(4.000000, 29.000000)">
                    <path d="M7.58490203,2.63008829 C7.79645698,1.93972216 8.00721745,1.38878944 8.21718345,0.977290135 C8.42714945,0.565790828 8.66258799,0.24002745 8.92349905,1.82076576e-14" id="Path-2" transform="translate(8.254201, 1.315044) scale(-1, -1) translate(-8.254201, -1.315044) "></path>
                    <path d="M10.7583518,3.12006864 C10.4026046,2.12914884 9.92814627,1.58671452 9.33497678,1.49276571 C8.74180728,1.39881689 8.17571322,1.49145504 7.63669458,1.77068016 C7.69903683,2.54506014 8.03085704,3.09888486 8.63215522,3.43215432 C9.2334534,3.76542378 9.94218559,3.66139522 10.7583518,3.12006864 Z" id="Path-3" fill="#2EAB50" transform="translate(9.197523, 2.539966) scale(-1, 1) rotate(-9.000000) translate(-9.197523, -2.539966) "></path>
                    <path d="M2.68393645,10.9226877 C5.46070603,11.2817934 8.71773423,8.64641975 8.71773423,6.05360529 C8.71773423,4.61988554 8.27286846,3.55694148 7.56516299,2.86875923 C6.99301655,2.31239638 6.25410668,1.9886978 5.40025153,2.00811999 C2.11159632,2.19515031 2.0669697,5.33191492 1.63197756,6.3460215 C1.09785735,7.59122746 0.121599214,8.10197896 0.0154952507,8.81614936 C-0.14550436,9.89981441 0.962154741,10.7000183 2.68393645,10.9226877 Z" id="Oval" fill="#D9992D"></path>
                </g>
                <path d="M16,22.5 C19.6666667,20.1666667 22.5,19.3333333 24.5,20 C27.5,21 33,23 36,21.5 C39,20 40.5,19 43,18.5 L43,40 C43,40.5522847 42.5522847,41 42,41 L17,41 C16.4477153,41 16,40.5522847 16,40 L16,22.5 Z" id="Path-23" fill="#D7A786"></path>
            </g>
        </g>
    </g>
</svg>