<?xml version="1.0" encoding="UTF-8"?>
<svg width="44px" height="40px" viewBox="0 0 44 40" version="1.1" xmlns="http://www.w3.org/2000/svg" xmlns:xlink="http://www.w3.org/1999/xlink">
    <!-- Generator: Sketch 55.2 (78181) - https://sketchapp.com -->
    <title>powders</title>
    <desc>Created with Sketch.</desc>
    <g id="Symbols" stroke="none" stroke-width="1" fill="none" fill-rule="evenodd">
        <g id="icon/powder" transform="translate(-7.000000, -15.000000)">
            <g id="powders" transform="translate(8.317182, 16.000000)">
                <path d="M15.6828177,0 L41.6828177,0 C41.1050399,5.78354209 40.8161511,11.9333407 40.8161511,18.449396 C40.8161511,24.9654512 41.1050399,31.4823192 41.6828177,38 L15.6828177,38 C16.2605955,30.952623 16.5494844,24.380923 16.5494844,18.2849001 C16.5494844,12.1888772 16.2605955,6.09391051 15.6828177,0 Z" id="Rectangle" stroke="#292929" fill="#D7C186" stroke-linecap="round" stroke-linejoin="round"></path>
                <path d="M16.6828177,13 C22.0161511,12 26.0161511,11.5 28.6828177,11.5 C31.3494844,11.5 35.3494844,12 40.6828177,13 L40.6828177,28 C35.7939288,27.6666667 31.9605955,27.5 29.1828177,27.5 C26.4050399,27.5 22.2383733,27.6666667 16.6828177,28 C16.6828177,24.4444444 16.6828177,21.7777778 16.6828177,20 C16.6828177,18.2222222 16.6828177,15.8888889 16.6828177,13 Z" id="Rectangle" fill="#F1ECEC"></path>
                <path d="M15.6828177,0 L41.6828177,0 C41.1050399,5.78354209 40.8161511,11.9333407 40.8161511,18.449396 C40.8161511,24.9654512 41.1050399,31.4823192 41.6828177,38 L15.6828177,38 C16.2605955,30.952623 16.5494844,24.380923 16.5494844,18.2849001 C16.5494844,12.1888772 16.2605955,6.09391051 15.6828177,0 Z" id="Rectangle-Copy" stroke="#292929" stroke-linecap="round" stroke-linejoin="round"></path>
                <path d="M16.7329021,12.6031621 C20.6585769,12.0274046 24.6228821,11.7395258 28.6258177,11.7395258 C32.6287534,11.7395258 36.6574427,12.0274046 40.7118858,12.6031621" id="Path-22" stroke="#292929" stroke-linecap="round" stroke-linejoin="round"></path>
                <path d="M16.7329021,28.1486167 C20.6336175,27.5728591 24.5865775,27.2849803 28.5917821,27.2849803 C32.5969866,27.2849803 36.6370212,27.5728591 40.7118858,28.1486167" id="Path-22" stroke="#292929" stroke-linecap="round" stroke-linejoin="round"></path>
                <path d="M9.68281772,28 L10.6828177,36 L6.68281772,36 L7.68281772,28 M7.68281772,28 C7.09634974,27.6513653 6.68281772,26.7317807 6.68281772,26 C6.68281772,24.8954305 7.57824822,24 8.68281772,24 C9.78738722,24 10.6828177,24.8954305 10.6828177,26 C10.6828177,26.7381928 10.2778289,27.6534765 9.68281772,28" id="Shape" stroke="#292929" fill="#D5D786" stroke-linecap="round" stroke-linejoin="round" transform="translate(8.682818, 30.000000) rotate(20.000000) translate(-8.682818, -30.000000) "></path>
                <path d="M0,32.2034592 L14,32.2034592 C14,36.2462909 11.6666667,38.2460615 7,38.2027713 C2.33333333,38.159481 0,36.1597103 0,32.2034592 Z" id="Path-14" stroke="#292929" fill="#D5D786" stroke-linecap="round" stroke-linejoin="round"></path>
            </g>
        </g>
    </g>
</svg>