<?xml version="1.0" encoding="UTF-8"?>
<svg width="148px" height="107px" viewBox="0 0 148 107" version="1.1" xmlns="http://www.w3.org/2000/svg" xmlns:xlink="http://www.w3.org/1999/xlink">
    <!-- Generator: Sketch 55.2 (78181) - https://sketchapp.com -->
    <title>graphic/01</title>
    <desc>Created with Sketch.</desc>
    <g id="1_Final-Design" stroke="none" stroke-width="1" fill="none" fill-rule="evenodd">
        <g id="1_Homepage" transform="translate(-66.000000, -979.000000)">
            <g id="Made-with-love-&amp;-respect" transform="translate(50.000000, 776.000000)">
                <g id="Infographic" transform="translate(0.000000, 181.000000)">
                    <g id="graphic/01">
                        <path d="M44.0195816,68.7020766 C80.5195816,50.7152974 58.0195816,29.7307217 78.5195816,23.7351286 C99.0195816,17.7395356 100.519582,50.7152974 133.019582,39.7233768 C150.540114,33.7977061 165.711239,63.0908672 163.519582,82.6917937 C161.327924,102.29272 121.519582,136.152499 60.5195816,127.658742 C12.3059647,120.945385 7.51958157,86.6888558 44.0195816,68.7020766 Z" id="Bg" fill="#8DD786"></path>
                        <g id="icon/fresh-fruit" transform="translate(10.000000, 10.000000)">
                            <path d="M63.1141234,112.161009 C92.4754949,121.26486 115.220567,82.4945022 112.322485,59.2662702 C109.424403,36.0380381 101.433561,-3.8900891 62.5714286,6.98055588 C32.0412686,21.5519844 8.57142857,36.0380381 8.57142857,60.9805559 C8.57142857,85.9230737 33.7527519,103.057158 63.1141234,112.161009 Z" id="Oval" transform="translate(60.571553, 59.331347) rotate(68.000000) translate(-60.571553, -59.331347) "></path>
                            <g id="Group-3" stroke-width="1" fill-rule="evenodd" transform="translate(6.571041, 12.562807)" stroke="#292929" stroke-linecap="round" stroke-linejoin="round">
                                <g id="Group" transform="translate(62.000388, 60.294336) scale(-1, 1) rotate(-41.000000) translate(-62.000388, -60.294336) translate(38.000388, 37.151479)">
                                    <path d="M33.0977543,11.066865 C34.0209032,8.16194779 34.9405852,5.84373739 35.8568005,4.11223381 C36.7730158,2.38073024 37.8003839,1.00998563 38.9389049,1.82076576e-14" id="Path-2" transform="translate(36.018330, 5.533433) scale(-1, -1) translate(-36.018330, -5.533433) "></path>
                                    <path d="M46.9583414,13.1687735 C45.3834862,8.98684359 43.3018706,6.6908994 40.7134946,6.28094091 C38.1251186,5.87098243 35.6592796,6.24750671 33.3159775,7.41051376 C33.6064251,10.6733982 35.0664381,13.0138797 37.6960163,14.4319582 C40.3255946,15.8500367 43.4130363,15.4289751 46.9583414,13.1687735 Z" id="Path-3" fill="#FFFFFF" transform="translate(40.137159, 10.686346) scale(-1, 1) rotate(-9.000000) translate(-40.137159, -10.686346) "></path>
                                    <path d="M11.7117227,45.9604003 C23.8285354,47.4714423 38.0410221,36.3823377 38.0410221,25.4723132 C38.0410221,19.4395184 36.0997896,14.9668707 33.0116203,12.0711427 C30.5149813,9.73008349 27.2906473,8.36802712 23.564734,8.44975165 C9.21423848,9.23673638 9.01950416,22.4355901 7.12135661,26.7027398 C4.79065027,31.9423078 0.530614751,34.091444 0.0676156396,37.0965246 C-0.634928115,41.6563619 4.19849341,45.0234538 11.7117227,45.9604003 Z" id="Oval" fill="#FFFFFF"></path>
                                </g>
                                <path d="M1.73926853,63.7229073 C39.1213747,36.2968041 61.4132407,20.2034778 68.6148667,15.4429282 C75.8164927,10.6823787 83.9942819,6.63410043 93.1482341,3.29809348" id="Path-12"></path>
                                <path d="M7.10542736e-15,58.1091507 C36.7214774,32.7498276 58.6830291,17.6898912 65.8846551,12.9293417 C73.0862811,8.16879212 82.1741408,3.85901156 93.1482341,7.10542736e-15" id="Path-12"></path>
                                <path d="M51.4002256,28.4946752 C54.8050625,30.2329489 60.0129135,31.3334621 67.0237784,31.7962147 C74.0346433,32.2589673 85.4064095,32.2527928 101.139077,31.7776913" id="Path-13"></path>
                                <path d="M54.828797,25.0661038 C59.2905638,26.6222647 64.4984147,27.7227778 70.4523498,28.3676433 C76.4062849,29.0125087 86.6351939,29.5839372 101.139077,30.081929" id="Path-13"></path>
                            </g>
                            <g id="Group-2" stroke-width="1" fill-rule="evenodd" transform="translate(63.428571, 72.000000)" stroke="#292929" stroke-linecap="round" stroke-linejoin="round">
                                <path d="M16.9282741,15.7842002 C14.77753,12.8151326 14.9400946,9.85528343 17.4159677,6.90465276 C19.8918408,3.95402209 22.7935185,3.65825626 26.1210007,6.01735527 C30.9874845,11.1919792 33.2783562,18.2257647 32.9936161,27.1187118 C32.7088759,36.011659 29.3535352,43.3575158 22.9275938,49.1562822 C24.5080938,39.88672 24.9022538,33.1455007 24.1100737,28.9326246 C23.3178937,24.7197484 20.9239605,20.3369403 16.9282741,15.7842002 Z" id="Rectangle" fill="#FFFFFF" transform="translate(24.222898, 26.800713) rotate(50.000000) translate(-24.222898, -26.800713) "></path>
                                <path d="M34.6044463,8.76965907 C34.3096156,7.21431357 34.8241244,5.54278866 36.1479727,3.75508435 C37.471821,1.96738004 39.3101781,0.715685254 41.663044,0" id="Path-7"></path>
                                <polyline id="Path-8" points="27.9731423 14.1314286 31.0357017 16.3413121 34.4595993 14.646149 37.0068705 17.039143 40.7578056 15.4369609"></polyline>
                            </g>
                        </g>
                    </g>
                </g>
            </g>
        </g>
    </g>
</svg>