<?xml version="1.0" encoding="UTF-8"?>
<svg width="144px" height="106px" viewBox="0 0 144 106" version="1.1" xmlns="http://www.w3.org/2000/svg" xmlns:xlink="http://www.w3.org/1999/xlink">
    <!-- Generator: Sketch 55.2 (78181) - https://sketchapp.com -->
    <title>graphic/02</title>
    <desc>Created with Sketch.</desc>
    <g id="1_Final-Design" stroke="none" stroke-width="1" fill="none" fill-rule="evenodd">
        <g id="1_Homepage" transform="translate(-436.000000, -1175.000000)">
            <g id="Made-with-love-&amp;-respect" transform="translate(50.000000, 776.000000)">
                <g id="Infographic" transform="translate(0.000000, 181.000000)">
                    <g id="graphic/02" transform="translate(386.000000, 195.000000)">
                        <path d="M24.0195816,68.7020766 C60.5195816,50.7152974 38.0195816,29.7307217 58.5195816,23.7351286 C79.0195816,17.7395356 80.5195816,50.7152974 113.019582,39.7233768 C130.540114,33.7977061 145.711239,63.0908672 143.519582,82.6917937 C141.327924,102.29272 101.519582,136.152499 40.5195816,127.658742 C-7.69403533,120.945385 -12.4804184,86.6888558 24.0195816,68.7020766 Z" id="Bg" fill="#D5D786"></path>
                        <g id="icon/clean-fruit" transform="translate(11.000000, 10.000000)" stroke="#292929" stroke-linecap="round" stroke-linejoin="round">
                            <g id="Group" transform="translate(60.000000, 60.857143) scale(-1, 1) rotate(-41.000000) translate(-60.000000, -60.857143) translate(36.000000, 37.714286)">
                                <path d="M33.0977543,11.066865 C34.0209032,8.16194779 34.9405852,5.84373739 35.8568005,4.11223381 C36.7730158,2.38073024 37.8003839,1.00998563 38.9389049,1.82076576e-14" id="Path-2" transform="translate(36.018330, 5.533433) scale(-1, -1) translate(-36.018330, -5.533433) "></path>
                                <path d="M46.9583414,13.1687735 C45.3834862,8.98684359 43.3018706,6.6908994 40.7134946,6.28094091 C38.1251186,5.87098243 35.6592796,6.24750671 33.3159775,7.41051376 C33.6064251,10.6733982 35.0664381,13.0138797 37.6960163,14.4319582 C40.3255946,15.8500367 43.4130363,15.4289751 46.9583414,13.1687735 Z" id="Path-3" fill="#FFFFFF" transform="translate(40.137159, 10.686346) scale(-1, 1) rotate(-9.000000) translate(-40.137159, -10.686346) "></path>
                                <path d="M11.7117227,45.9604003 C23.8285354,47.4714423 38.0410221,36.3823377 38.0410221,25.4723132 C38.0410221,19.4395184 36.0997896,14.9668707 33.0116203,12.0711427 C30.5149813,9.73008349 27.2906473,8.36802712 23.564734,8.44975165 C9.21423848,9.23673638 9.01950416,22.4355901 7.12135661,26.7027398 C4.79065027,31.9423078 0.530614751,34.091444 0.0676156396,37.0965246 C-0.634928115,41.6563619 4.19849341,45.0234538 11.7117227,45.9604003 Z" id="Oval" fill="#FFFFFF"></path>
                            </g>
                            <polygon id="Rectangle" fill="#FFFFFF" points="82.2857143 46.2857143 85.8629555 47.6571429 89.1428571 46.2857143 87.7714286 49.6475154 89.1428571 53.1428571 85.9352489 51.7714286 82.2857143 53.1428571 83.6571429 49.6229741"></polygon>
                            <polygon id="Rectangle-Copy" fill="#FFFFFF" points="34.2857143 37.7142857 37.8629555 39.0857143 41.1428571 37.7142857 39.7714286 41.0760868 41.1428571 44.5714286 37.9352489 43.2 34.2857143 44.5714286 35.6571429 41.0515455"></polygon>
                            <polygon id="Rectangle-Copy-2" fill="#FFFFFF" points="61.7142857 18.8571429 66.1858373 20.5714286 70.2857143 18.8571429 68.5714286 23.0593942 70.2857143 27.4285714 66.2762039 25.7142857 61.7142857 27.4285714 63.4285714 23.0287176"></polygon>
                        </g>
                    </g>
                </g>
            </g>
        </g>
    </g>
</svg>