<?xml version="1.0" encoding="UTF-8"?>
<svg width="144px" height="106px" viewBox="0 0 144 106" version="1.1" xmlns="http://www.w3.org/2000/svg" xmlns:xlink="http://www.w3.org/1999/xlink">
    <!-- Generator: Sketch 55.2 (78181) - https://sketchapp.com -->
    <title>graphic/03</title>
    <desc>Created with Sketch.</desc>
    <g id="1_Final-Design" stroke="none" stroke-width="1" fill="none" fill-rule="evenodd">
        <g id="1_Homepage" transform="translate(-65.000000, -1370.000000)">
            <g id="Made-with-love-&amp;-respect" transform="translate(50.000000, 776.000000)">
                <g id="Infographic" transform="translate(0.000000, 181.000000)">
                    <g id="graphic/03" transform="translate(15.000000, 390.000000)">
                        <path d="M24.0195816,68.7020766 C60.5195816,50.7152974 38.0195816,29.7307217 58.5195816,23.7351286 C79.0195816,17.7395356 80.5195816,50.7152974 113.019582,39.7233768 C130.540114,33.7977061 145.711239,63.0908672 143.519582,82.6917937 C141.327924,102.29272 101.519582,136.152499 40.5195816,127.658742 C-7.69403533,120.945385 -12.4804184,86.6888558 24.0195816,68.7020766 Z" id="Bg" fill="#86D7C6"></path>
                        <g id="icon/Cutting-fruit" transform="translate(13.000000, 10.000000)" stroke="#292929" stroke-linecap="round" stroke-linejoin="round">
                            <g id="Group-2" transform="translate(17.142857, 25.714286)">
                                <g id="Group" transform="translate(35.142857, 34.285714) scale(-1, 1) rotate(-19.000000) translate(-35.142857, -34.285714) translate(8.571429, 8.571429)">
                                    <path d="M36.6439423,12.2965167 C37.6659999,9.06883088 38.6842194,6.49304154 39.6986006,4.56914868 C40.7129818,2.64525582 41.8504251,1.12220626 43.1109305,1.82076576e-14" id="Path-2" transform="translate(39.877436, 6.148258) scale(-1, -1) translate(-39.877436, -6.148258) "></path>
                                    <path d="M51.9882196,14.6275068 C50.247041,9.98228975 47.9436007,7.43273991 45.0778987,6.9788573 C42.2121968,6.5249747 39.4816904,6.94481032 36.8863796,8.23836418 C37.2059742,11.8632964 38.8211239,14.462709 41.7318286,16.0366017 C44.6425332,17.6104945 48.0613303,17.1407962 51.9882196,14.6275068 Z" id="Path-3" fill="#FFFFFF" transform="translate(44.437300, 11.873866) scale(-1, 1) rotate(-9.000000) translate(-44.437300, -11.873866) "></path>
                                    <path d="M12.9665501,51.0671114 C26.3815928,52.746047 42.1168459,40.4248196 42.1168459,28.3025702 C42.1168459,21.5994648 39.9676242,16.6298563 36.5485797,13.4123808 C33.7844436,10.8112039 30.2146452,9.29780791 26.0895269,9.38861295 C10.2014783,10.2630404 9.98587961,24.9284334 7.8843591,29.6697109 C5.30393423,35.4914531 0.587466332,37.8793822 0.0748601725,41.2183607 C-0.702956128,46.2848466 4.64833199,50.0260598 12.9665501,51.0671114 Z" id="Oval" fill="#FFFFFF"></path>
                                </g>
                                <path d="M41.1428571,46.2857143 C51.4141141,47.7625787 59.1283998,48.5010109 64.2857143,48.5010109 C69.4430288,48.5010109 77.1573145,47.7625787 87.4285714,46.2857143 C87.4285714,58.9917566 79.7142857,65.2767501 64.2857143,65.140695 C48.8571429,65.0046398 41.1428571,58.7196463 41.1428571,46.2857143 Z" id="Path-14" fill="#FFFFFF"></path>
                                <path d="M48,51.4285714 C54.3503473,52.5714286 59.350415,53.1428571 63.0002031,53.1428571 C66.6499913,53.1428571 71.3642093,52.5714286 77.1428571,51.4285714" id="Path-15"></path>
                            </g>
                        </g>
                    </g>
                </g>
            </g>
        </g>
    </g>
</svg>