<?xml version="1.0" encoding="UTF-8"?>
<svg width="144px" height="108px" viewBox="0 0 144 108" version="1.1" xmlns="http://www.w3.org/2000/svg" xmlns:xlink="http://www.w3.org/1999/xlink">
    <!-- Generator: Sketch 55.2 (78181) - https://sketchapp.com -->
    <title>graphic/05</title>
    <desc>Created with Sketch.</desc>
    <g id="1_Final-Design" stroke="none" stroke-width="1" fill="none" fill-rule="evenodd">
        <g id="1_Homepage" transform="translate(-65.000000, -1758.000000)">
            <g id="Made-with-love-&amp;-respect" transform="translate(50.000000, 776.000000)">
                <g id="Infographic" transform="translate(0.000000, 181.000000)">
                    <g id="graphic/05" transform="translate(13.000000, 780.000000)">
                        <path d="M26.0195816,68.7020766 C62.5195816,50.7152974 40.0195816,29.7307217 60.5195816,23.7351286 C81.0195816,17.7395356 82.5195816,50.7152974 115.019582,39.7233768 C132.540114,33.7977061 147.711239,63.0908672 145.519582,82.6917937 C143.327924,102.29272 103.519582,136.152499 42.5195816,127.658742 C-5.69403533,120.945385 -10.4804184,86.6888558 26.0195816,68.7020766 Z" id="Bg" fill="#86BFD7"></path>
                        <g id="icon/marinate" transform="translate(10.000000, 10.000000)" stroke="#000000" stroke-linecap="round" stroke-linejoin="round">
                            <path d="M46.5714286,25.7142857 L94,25.7142857 C95.1045695,25.7142857 96,26.6097162 96,27.7142857 L96,101.142857 L44.5714286,101.142857 L44.5714286,27.7142857 C44.5714286,26.6097162 45.4668591,25.7142857 46.5714286,25.7142857 Z" id="Rectangle" fill="#FFFFFF"></path>
                            <path d="M51.2142857,17.1428571 L89.3571429,17.1428571 C90.18557,17.1428571 90.8571429,17.81443 90.8571429,18.6428571 L90.8571429,23.2142857 C90.8571429,24.5949976 89.7378547,25.7142857 88.3571429,25.7142857 L52.2142857,25.7142857 C50.8335738,25.7142857 49.7142857,24.5949976 49.7142857,23.2142857 L49.7142857,18.6428571 C49.7142857,17.81443 50.3858586,17.1428571 51.2142857,17.1428571 Z" id="Rectangle-Copy" fill="#FFFFFF"></path>
                            <path d="M68.3571429,12 L72.2142857,12 C73.0427128,12 73.7142857,12.6715729 73.7142857,13.5 L73.7142857,14.6428571 C73.7142857,16.023569 72.5949976,17.1428571 71.2142857,17.1428571 L69.3571429,17.1428571 C67.976431,17.1428571 66.8571429,16.023569 66.8571429,14.6428571 L66.8571429,13.5 C66.8571429,12.6715729 67.5287157,12 68.3571429,12 Z" id="Rectangle-Copy" fill="#FFFFFF"></path>
                            <g id="Group" transform="translate(38.377073, 85.670512) scale(-1, 1) rotate(-19.000000) translate(-38.377073, -85.670512) translate(22.091359, 70.241940)">
                                <path d="M22.2737688,7.37791002 C22.8950196,5.44129853 23.5139373,3.89582493 24.1305219,2.74148921 C24.7471066,1.58715349 25.4384937,0.673323755 26.2046832,1.82076576e-14" id="Path-2" transform="translate(24.239226, 3.688955) scale(-1, -1) translate(-24.239226, -3.688955) "></path>
                                <path d="M31.6036974,8.78627178 C30.5400389,5.99613993 29.137261,4.4631293 27.3953638,4.18723987 C25.6534665,3.91135045 23.9947798,4.16002349 22.4193036,4.933259 C22.6178985,7.1093014 23.6024962,8.67140512 25.3730966,9.61957015 C27.1436971,10.5677352 29.2205641,10.2899691 31.6036974,8.78627178 Z" id="Path-3" fill="#FFFFFF" transform="translate(27.011500, 7.123992) scale(-1, 1) rotate(-9.000000) translate(-27.011500, -7.123992) "></path>
                                <path d="M7.88162851,30.6402669 C16.0358701,31.6476282 25.6004357,24.2548918 25.6004357,16.9815421 C25.6004357,12.9596789 24.2940461,9.97791377 22.2158033,8.04742849 C20.5356422,6.48672232 18.3657648,5.57868475 15.8583399,5.63316777 C6.20089859,6.15782425 6.06984839,14.95706 4.79245357,17.8018266 C3.22396002,21.2948718 0.357087378,22.7276293 0.0455032421,24.7310164 C-0.427287058,27.7709079 2.8254567,30.0156359 7.88162851,30.6402669 Z" id="Oval" fill="#FFFFFF"></path>
                            </g>
                            <g id="Group-3" transform="translate(42.151261, 92.914286)">
                                <path d="M3.90798505e-14,1.0658141e-14 C6.24331303,0.886118643 10.9323887,1.32917796 14.0672269,1.32917796 C17.2020651,1.32917796 21.8911407,0.886118643 28.1344538,1.0658141e-14 C28.1344538,7.62362538 23.4453782,11.3946215 14.0672269,11.3129884 C4.68907563,11.2313553 3.90798505e-14,7.46035919 3.90798505e-14,1.0658141e-14 Z" id="Path-14" fill="#FFFFFF"></path>
                                <path d="M5.3680675,3.77142857 C9.2280825,4.45714286 12.2673393,4.8 14.485838,4.8 C16.7043367,4.8 19.5698418,4.45714286 23.0823532,3.77142857" id="Path-15"></path>
                            </g>
                        </g>
                    </g>
                </g>
            </g>
        </g>
    </g>
</svg>